<mxfile host="app.diagrams.net" modified="2021-07-09T07:37:11.625Z" agent="5.0 (Windows NT 10.0; Win64; x64) AppleWebKit/537.36 (KHTML, like Gecko) Chrome/91.0.4472.124 Safari/537.36" etag="qIjwKeadCYqiECVOSWva" version="14.8.5" type="github">
  <diagram id="RtaTLK7Alg3g1Zy7HS9u" name="Page-1">
    <mxGraphModel dx="1422" dy="762" grid="1" gridSize="10" guides="1" tooltips="1" connect="1" arrows="1" fold="1" page="1" pageScale="1" pageWidth="827" pageHeight="1169" math="0" shadow="0">
      <root>
        <mxCell id="0" />
        <mxCell id="1" parent="0" />
        <mxCell id="_p9k65zuT0jPHEgVzIhA-44" value="" style="shape=cylinder3;whiteSpace=wrap;html=1;boundedLbl=1;backgroundOutline=1;size=15;labelBackgroundColor=none;fontSize=14;fontColor=#FF6666;" parent="1" vertex="1">
          <mxGeometry x="72.5" y="520" width="180" height="310" as="geometry" />
        </mxCell>
        <mxCell id="_p9k65zuT0jPHEgVzIhA-31" value="" style="edgeStyle=orthogonalEdgeStyle;rounded=0;orthogonalLoop=1;jettySize=auto;html=1;fontSize=11;fontColor=#000000;strokeColor=#FF6666;entryX=0;entryY=0.5;entryDx=0;entryDy=0;entryPerimeter=0;" parent="1" source="ESwwlN0mZAk3mVwtD_2X-42" target="_p9k65zuT0jPHEgVzIhA-17" edge="1">
          <mxGeometry relative="1" as="geometry" />
        </mxCell>
        <mxCell id="ESwwlN0mZAk3mVwtD_2X-42" value="" style="shape=cylinder3;whiteSpace=wrap;html=1;boundedLbl=1;backgroundOutline=1;size=15;labelBackgroundColor=none;fontSize=14;fontColor=#FF6666;" parent="1" vertex="1">
          <mxGeometry x="70" y="130" width="180" height="310" as="geometry" />
        </mxCell>
        <mxCell id="ESwwlN0mZAk3mVwtD_2X-43" value="Evaluate Script" style="rounded=0;whiteSpace=wrap;html=1;labelBackgroundColor=none;fontSize=14;fillColor=#dae8fc;strokeColor=#6c8ebf;strokeWidth=1;" parent="1" vertex="1">
          <mxGeometry x="80" y="380" width="160" height="40" as="geometry" />
        </mxCell>
        <mxCell id="ESwwlN0mZAk3mVwtD_2X-44" value="调用执行栈" style="text;html=1;strokeColor=none;fillColor=none;align=center;verticalAlign=middle;whiteSpace=wrap;rounded=0;labelBackgroundColor=none;fontSize=14;" parent="1" vertex="1">
          <mxGeometry x="80" y="90" width="160" height="20" as="geometry" />
        </mxCell>
        <mxCell id="ESwwlN0mZAk3mVwtD_2X-46" value="解析js脚本" style="rounded=0;whiteSpace=wrap;html=1;labelBackgroundColor=none;fontSize=14;fillColor=#dae8fc;strokeColor=#6c8ebf;" parent="1" vertex="1">
          <mxGeometry x="80" y="271" width="160" height="100" as="geometry" />
        </mxCell>
        <mxCell id="ESwwlN0mZAk3mVwtD_2X-47" value="" style="rounded=0;whiteSpace=wrap;html=1;labelBackgroundColor=none;fontSize=14;fontColor=#000000;strokeWidth=1;" parent="1" vertex="1">
          <mxGeometry x="91" y="308" width="139" height="58" as="geometry" />
        </mxCell>
        <mxCell id="ESwwlN0mZAk3mVwtD_2X-48" value="全局执行上下文" style="text;html=1;strokeColor=none;fillColor=none;align=center;verticalAlign=middle;whiteSpace=wrap;rounded=0;labelBackgroundColor=none;fontSize=12;fontColor=#000000;" parent="1" vertex="1">
          <mxGeometry x="100" y="282" width="120" height="20" as="geometry" />
        </mxCell>
        <mxCell id="ESwwlN0mZAk3mVwtD_2X-50" value="微任务队列" style="text;html=1;strokeColor=none;fillColor=none;align=center;verticalAlign=middle;whiteSpace=wrap;rounded=0;labelBackgroundColor=none;fontSize=12;fontColor=#000000;" parent="1" vertex="1">
          <mxGeometry x="100" y="311" width="120" height="20" as="geometry" />
        </mxCell>
        <mxCell id="ESwwlN0mZAk3mVwtD_2X-51" value="Mutation" style="rounded=1;whiteSpace=wrap;html=1;labelBackgroundColor=none;fontSize=11;strokeWidth=1;fillColor=#f8cecc;strokeColor=#b85450;" parent="1" vertex="1">
          <mxGeometry x="97" y="335" width="60" height="24" as="geometry" />
        </mxCell>
        <mxCell id="ESwwlN0mZAk3mVwtD_2X-52" value="Promise" style="rounded=1;whiteSpace=wrap;html=1;labelBackgroundColor=none;fontSize=11;strokeWidth=1;fillColor=#f8cecc;strokeColor=#b85450;" parent="1" vertex="1">
          <mxGeometry x="163" y="335" width="60" height="24" as="geometry" />
        </mxCell>
        <mxCell id="_p9k65zuT0jPHEgVzIhA-1" value="Promise.resolve(1)" style="rounded=0;whiteSpace=wrap;html=1;labelBackgroundColor=none;fontSize=14;fillColor=#dae8fc;strokeColor=#6c8ebf;strokeWidth=1;" parent="1" vertex="1">
          <mxGeometry x="80" y="220" width="160" height="40" as="geometry" />
        </mxCell>
        <mxCell id="_p9k65zuT0jPHEgVzIhA-2" value="removeChild" style="rounded=0;whiteSpace=wrap;html=1;labelBackgroundColor=none;fontSize=14;fillColor=#dae8fc;strokeColor=#6c8ebf;strokeWidth=1;" parent="1" vertex="1">
          <mxGeometry x="80" y="170" width="160" height="40" as="geometry" />
        </mxCell>
        <mxCell id="_p9k65zuT0jPHEgVzIhA-4" value="" style="endArrow=classic;html=1;fontSize=11;fontColor=#000000;strokeColor=#FF6666;entryX=0;entryY=0.75;entryDx=0;entryDy=0;exitX=0;exitY=0.5;exitDx=0;exitDy=0;" parent="1" source="_p9k65zuT0jPHEgVzIhA-2" target="ESwwlN0mZAk3mVwtD_2X-46" edge="1">
          <mxGeometry width="50" height="50" relative="1" as="geometry">
            <mxPoint x="40" y="310" as="sourcePoint" />
            <mxPoint x="90" y="260" as="targetPoint" />
            <Array as="points">
              <mxPoint x="30" y="190" />
              <mxPoint x="30" y="346" />
            </Array>
          </mxGeometry>
        </mxCell>
        <mxCell id="_p9k65zuT0jPHEgVzIhA-6" value="" style="endArrow=classic;html=1;fontSize=11;fontColor=#000000;strokeColor=#FF6666;entryX=0;entryY=0.5;entryDx=0;entryDy=0;exitX=0;exitY=0.5;exitDx=0;exitDy=0;" parent="1" source="_p9k65zuT0jPHEgVzIhA-1" target="ESwwlN0mZAk3mVwtD_2X-46" edge="1">
          <mxGeometry width="50" height="50" relative="1" as="geometry">
            <mxPoint x="30" y="330" as="sourcePoint" />
            <mxPoint x="80" y="280" as="targetPoint" />
            <Array as="points">
              <mxPoint x="40" y="240" />
              <mxPoint x="40" y="321" />
            </Array>
          </mxGeometry>
        </mxCell>
        <mxCell id="_p9k65zuT0jPHEgVzIhA-17" value="" style="shape=cylinder3;whiteSpace=wrap;html=1;boundedLbl=1;backgroundOutline=1;size=15;labelBackgroundColor=none;fontSize=14;fontColor=#FF6666;" parent="1" vertex="1">
          <mxGeometry x="330" y="130" width="180" height="310" as="geometry" />
        </mxCell>
        <mxCell id="_p9k65zuT0jPHEgVzIhA-18" value="Evaluate Script" style="rounded=0;whiteSpace=wrap;html=1;labelBackgroundColor=none;fontSize=14;fillColor=#dae8fc;strokeColor=#6c8ebf;strokeWidth=1;" parent="1" vertex="1">
          <mxGeometry x="339" y="380" width="160" height="40" as="geometry" />
        </mxCell>
        <mxCell id="_p9k65zuT0jPHEgVzIhA-20" value="解析js脚本" style="rounded=0;whiteSpace=wrap;html=1;labelBackgroundColor=none;fontSize=14;fillColor=#dae8fc;strokeColor=#6c8ebf;" parent="1" vertex="1">
          <mxGeometry x="339" y="271" width="160" height="100" as="geometry" />
        </mxCell>
        <mxCell id="_p9k65zuT0jPHEgVzIhA-21" value="" style="rounded=0;whiteSpace=wrap;html=1;labelBackgroundColor=none;fontSize=14;fontColor=#000000;strokeWidth=1;" parent="1" vertex="1">
          <mxGeometry x="350.5" y="308" width="139" height="58" as="geometry" />
        </mxCell>
        <mxCell id="_p9k65zuT0jPHEgVzIhA-22" value="全局执行上下文" style="text;html=1;strokeColor=none;fillColor=none;align=center;verticalAlign=middle;whiteSpace=wrap;rounded=0;labelBackgroundColor=none;fontSize=12;fontColor=#000000;" parent="1" vertex="1">
          <mxGeometry x="360" y="282" width="120" height="20" as="geometry" />
        </mxCell>
        <mxCell id="_p9k65zuT0jPHEgVzIhA-23" value="微任务队列" style="text;html=1;strokeColor=none;fillColor=none;align=center;verticalAlign=middle;whiteSpace=wrap;rounded=0;labelBackgroundColor=none;fontSize=12;fontColor=#000000;" parent="1" vertex="1">
          <mxGeometry x="360" y="311" width="120" height="20" as="geometry" />
        </mxCell>
        <mxCell id="_p9k65zuT0jPHEgVzIhA-24" value="Mutation" style="rounded=1;whiteSpace=wrap;html=1;labelBackgroundColor=none;fontSize=11;strokeWidth=1;fillColor=#f8cecc;strokeColor=#b85450;" parent="1" vertex="1">
          <mxGeometry x="357" y="335" width="60" height="24" as="geometry" />
        </mxCell>
        <mxCell id="_p9k65zuT0jPHEgVzIhA-25" value="Promise" style="rounded=1;whiteSpace=wrap;html=1;labelBackgroundColor=none;fontSize=11;strokeWidth=1;fillColor=#f8cecc;strokeColor=#b85450;" parent="1" vertex="1">
          <mxGeometry x="423" y="335" width="60" height="24" as="geometry" />
        </mxCell>
        <mxCell id="_p9k65zuT0jPHEgVzIhA-32" value="JS执行结束" style="text;html=1;strokeColor=none;fillColor=none;align=center;verticalAlign=middle;whiteSpace=wrap;rounded=0;labelBackgroundColor=none;fontSize=11;fontColor=#000000;" parent="1" vertex="1">
          <mxGeometry x="256" y="252" width="70" height="20" as="geometry" />
        </mxCell>
        <mxCell id="_p9k65zuT0jPHEgVzIhA-34" value="解析js脚本" style="rounded=0;whiteSpace=wrap;html=1;labelBackgroundColor=none;fontSize=14;fillColor=#dae8fc;strokeColor=#6c8ebf;" parent="1" vertex="1">
          <mxGeometry x="82" y="655" width="160" height="100" as="geometry" />
        </mxCell>
        <mxCell id="_p9k65zuT0jPHEgVzIhA-35" value="" style="rounded=0;whiteSpace=wrap;html=1;labelBackgroundColor=none;fontSize=14;fontColor=#000000;strokeWidth=1;" parent="1" vertex="1">
          <mxGeometry x="93" y="692" width="139" height="58" as="geometry" />
        </mxCell>
        <mxCell id="_p9k65zuT0jPHEgVzIhA-36" value="全局执行上下文" style="text;html=1;strokeColor=none;fillColor=none;align=center;verticalAlign=middle;whiteSpace=wrap;rounded=0;labelBackgroundColor=none;fontSize=12;fontColor=#000000;" parent="1" vertex="1">
          <mxGeometry x="102" y="666" width="120" height="20" as="geometry" />
        </mxCell>
        <mxCell id="_p9k65zuT0jPHEgVzIhA-37" value="微任务队列" style="text;html=1;strokeColor=none;fillColor=none;align=center;verticalAlign=middle;whiteSpace=wrap;rounded=0;labelBackgroundColor=none;fontSize=12;fontColor=#000000;" parent="1" vertex="1">
          <mxGeometry x="102" y="695" width="120" height="20" as="geometry" />
        </mxCell>
        <mxCell id="_p9k65zuT0jPHEgVzIhA-47" value="" style="edgeStyle=orthogonalEdgeStyle;rounded=0;orthogonalLoop=1;jettySize=auto;html=1;fontSize=11;fontColor=#000000;strokeColor=#FF6666;entryX=1;entryY=0.5;entryDx=0;entryDy=0;" parent="1" source="_p9k65zuT0jPHEgVzIhA-38" target="_p9k65zuT0jPHEgVzIhA-40" edge="1">
          <mxGeometry relative="1" as="geometry">
            <mxPoint x="340" y="590" as="targetPoint" />
            <Array as="points">
              <mxPoint x="300" y="731" />
              <mxPoint x="300" y="624" />
              <mxPoint x="242" y="624" />
            </Array>
          </mxGeometry>
        </mxCell>
        <mxCell id="_p9k65zuT0jPHEgVzIhA-49" value="promise" style="edgeLabel;html=1;align=center;verticalAlign=middle;resizable=0;points=[];fontSize=11;fontColor=#000000;" parent="_p9k65zuT0jPHEgVzIhA-47" vertex="1" connectable="0">
          <mxGeometry x="-0.0206" y="1" relative="1" as="geometry">
            <mxPoint as="offset" />
          </mxGeometry>
        </mxCell>
        <mxCell id="_p9k65zuT0jPHEgVzIhA-38" value="Mutation" style="rounded=1;whiteSpace=wrap;html=1;labelBackgroundColor=none;fontSize=11;strokeWidth=1;fillColor=#f8cecc;strokeColor=#b85450;" parent="1" vertex="1">
          <mxGeometry x="162" y="719" width="60" height="24" as="geometry" />
        </mxCell>
        <mxCell id="_p9k65zuT0jPHEgVzIhA-40" value="Promise.resolve(1)" style="rounded=0;whiteSpace=wrap;html=1;labelBackgroundColor=none;fontSize=14;fillColor=#dae8fc;strokeColor=#6c8ebf;strokeWidth=1;" parent="1" vertex="1">
          <mxGeometry x="82" y="604" width="160" height="40" as="geometry" />
        </mxCell>
        <mxCell id="_p9k65zuT0jPHEgVzIhA-45" value="Evaluate Script" style="rounded=0;whiteSpace=wrap;html=1;labelBackgroundColor=none;fontSize=14;fillColor=#dae8fc;strokeColor=#6c8ebf;strokeWidth=1;" parent="1" vertex="1">
          <mxGeometry x="82" y="764" width="160" height="40" as="geometry" />
        </mxCell>
        <mxCell id="_p9k65zuT0jPHEgVzIhA-48" value="取出Promise&lt;br&gt;在当前宏任务中执行" style="shape=callout;whiteSpace=wrap;html=1;perimeter=calloutPerimeter;rounded=0;labelBackgroundColor=none;fontSize=11;strokeWidth=1;size=24;position=0.25;position2=0.25;fillColor=#f5f5f5;strokeColor=#666666;fontColor=#333333;" parent="1" vertex="1">
          <mxGeometry x="270" y="540" width="120" height="80" as="geometry" />
        </mxCell>
        <mxCell id="_p9k65zuT0jPHEgVzIhA-50" value="" style="shape=cylinder3;whiteSpace=wrap;html=1;boundedLbl=1;backgroundOutline=1;size=15;labelBackgroundColor=none;fontSize=14;fontColor=#FF6666;" parent="1" vertex="1">
          <mxGeometry x="440" y="520" width="180" height="310" as="geometry" />
        </mxCell>
        <mxCell id="_p9k65zuT0jPHEgVzIhA-51" value="解析js脚本" style="rounded=0;whiteSpace=wrap;html=1;labelBackgroundColor=none;fontSize=14;fillColor=#dae8fc;strokeColor=#6c8ebf;" parent="1" vertex="1">
          <mxGeometry x="449.5" y="655" width="160" height="100" as="geometry" />
        </mxCell>
        <mxCell id="_p9k65zuT0jPHEgVzIhA-52" value="" style="rounded=0;whiteSpace=wrap;html=1;labelBackgroundColor=none;fontSize=14;fontColor=#000000;strokeWidth=1;" parent="1" vertex="1">
          <mxGeometry x="460.5" y="692" width="139" height="58" as="geometry" />
        </mxCell>
        <mxCell id="_p9k65zuT0jPHEgVzIhA-53" value="全局执行上下文" style="text;html=1;strokeColor=none;fillColor=none;align=center;verticalAlign=middle;whiteSpace=wrap;rounded=0;labelBackgroundColor=none;fontSize=12;fontColor=#000000;" parent="1" vertex="1">
          <mxGeometry x="469.5" y="666" width="120" height="20" as="geometry" />
        </mxCell>
        <mxCell id="_p9k65zuT0jPHEgVzIhA-54" value="微任务队列" style="text;html=1;strokeColor=none;fillColor=none;align=center;verticalAlign=middle;whiteSpace=wrap;rounded=0;labelBackgroundColor=none;fontSize=12;fontColor=#000000;" parent="1" vertex="1">
          <mxGeometry x="469.5" y="711" width="120" height="20" as="geometry" />
        </mxCell>
        <mxCell id="_p9k65zuT0jPHEgVzIhA-55" value="" style="edgeStyle=orthogonalEdgeStyle;rounded=0;orthogonalLoop=1;jettySize=auto;html=1;fontSize=11;fontColor=#000000;strokeColor=#FF6666;entryX=1;entryY=0.5;entryDx=0;entryDy=0;" parent="1" target="_p9k65zuT0jPHEgVzIhA-58" edge="1">
          <mxGeometry relative="1" as="geometry">
            <mxPoint x="707.5" y="590" as="targetPoint" />
            <Array as="points">
              <mxPoint x="667.5" y="731" />
              <mxPoint x="667.5" y="624" />
              <mxPoint x="609.5" y="624" />
            </Array>
            <mxPoint x="589.5" y="731" as="sourcePoint" />
          </mxGeometry>
        </mxCell>
        <mxCell id="_p9k65zuT0jPHEgVzIhA-56" value="promise" style="edgeLabel;html=1;align=center;verticalAlign=middle;resizable=0;points=[];fontSize=11;fontColor=#000000;" parent="_p9k65zuT0jPHEgVzIhA-55" vertex="1" connectable="0">
          <mxGeometry x="-0.0206" y="1" relative="1" as="geometry">
            <mxPoint as="offset" />
          </mxGeometry>
        </mxCell>
        <mxCell id="_p9k65zuT0jPHEgVzIhA-61" value="&lt;span style=&quot;background-color: rgb(248 , 249 , 250)&quot;&gt;Mutation&lt;/span&gt;" style="edgeLabel;html=1;align=center;verticalAlign=middle;resizable=0;points=[];fontSize=11;fontColor=#000000;" parent="_p9k65zuT0jPHEgVzIhA-55" vertex="1" connectable="0">
          <mxGeometry x="-0.0535" y="-1" relative="1" as="geometry">
            <mxPoint x="1" as="offset" />
          </mxGeometry>
        </mxCell>
        <mxCell id="_p9k65zuT0jPHEgVzIhA-58" value="&lt;font style=&quot;font-size: 14px&quot;&gt;Mutation&lt;/font&gt;" style="rounded=0;whiteSpace=wrap;html=1;labelBackgroundColor=none;fontSize=14;fillColor=#dae8fc;strokeColor=#6c8ebf;strokeWidth=1;" parent="1" vertex="1">
          <mxGeometry x="449.5" y="604" width="160" height="40" as="geometry" />
        </mxCell>
        <mxCell id="_p9k65zuT0jPHEgVzIhA-59" value="Evaluate Script" style="rounded=0;whiteSpace=wrap;html=1;labelBackgroundColor=none;fontSize=14;fillColor=#dae8fc;strokeColor=#6c8ebf;strokeWidth=1;" parent="1" vertex="1">
          <mxGeometry x="449.5" y="764" width="160" height="40" as="geometry" />
        </mxCell>
        <mxCell id="_p9k65zuT0jPHEgVzIhA-60" value="取出&lt;span style=&quot;color: rgb(0 , 0 , 0)&quot;&gt;Mutation&lt;/span&gt;&lt;br&gt;在当前宏任务中执行" style="shape=callout;whiteSpace=wrap;html=1;perimeter=calloutPerimeter;rounded=0;labelBackgroundColor=none;fontSize=11;strokeWidth=1;size=24;position=0.25;position2=0.25;fillColor=#f5f5f5;strokeColor=#666666;fontColor=#333333;" parent="1" vertex="1">
          <mxGeometry x="637.5" y="540" width="120" height="80" as="geometry" />
        </mxCell>
        <mxCell id="PJ4laJO8iNkLSK0FhErg-3" value="" style="edgeStyle=orthogonalEdgeStyle;rounded=0;orthogonalLoop=1;jettySize=auto;html=1;" edge="1" parent="1" source="PJ4laJO8iNkLSK0FhErg-1" target="PJ4laJO8iNkLSK0FhErg-2">
          <mxGeometry relative="1" as="geometry" />
        </mxCell>
        <mxCell id="PJ4laJO8iNkLSK0FhErg-1" value="宏任务" style="rounded=1;whiteSpace=wrap;html=1;" vertex="1" parent="1">
          <mxGeometry x="206" y="930" width="120" height="60" as="geometry" />
        </mxCell>
        <mxCell id="PJ4laJO8iNkLSK0FhErg-7" value="" style="edgeStyle=orthogonalEdgeStyle;rounded=0;orthogonalLoop=1;jettySize=auto;html=1;" edge="1" parent="1" source="PJ4laJO8iNkLSK0FhErg-2" target="PJ4laJO8iNkLSK0FhErg-6">
          <mxGeometry relative="1" as="geometry" />
        </mxCell>
        <mxCell id="PJ4laJO8iNkLSK0FhErg-2" value="执行结束" style="whiteSpace=wrap;html=1;rounded=1;" vertex="1" parent="1">
          <mxGeometry x="206" y="1040" width="120" height="60" as="geometry" />
        </mxCell>
        <mxCell id="PJ4laJO8iNkLSK0FhErg-9" value="没有，开始新的宏任务" style="edgeStyle=orthogonalEdgeStyle;rounded=0;orthogonalLoop=1;jettySize=auto;html=1;" edge="1" parent="1" source="PJ4laJO8iNkLSK0FhErg-6">
          <mxGeometry relative="1" as="geometry">
            <mxPoint x="330" y="960" as="targetPoint" />
            <Array as="points">
              <mxPoint x="400" y="1190" />
              <mxPoint x="400" y="960" />
            </Array>
          </mxGeometry>
        </mxCell>
        <mxCell id="PJ4laJO8iNkLSK0FhErg-11" value="有" style="edgeStyle=orthogonalEdgeStyle;rounded=0;orthogonalLoop=1;jettySize=auto;html=1;" edge="1" parent="1" source="PJ4laJO8iNkLSK0FhErg-6" target="PJ4laJO8iNkLSK0FhErg-10">
          <mxGeometry relative="1" as="geometry" />
        </mxCell>
        <mxCell id="PJ4laJO8iNkLSK0FhErg-6" value="有可执行的微任务吗？" style="rhombus;whiteSpace=wrap;html=1;rounded=1;fillColor=#f8cecc;strokeColor=#b85450;" vertex="1" parent="1">
          <mxGeometry x="193" y="1150" width="146" height="80" as="geometry" />
        </mxCell>
        <mxCell id="PJ4laJO8iNkLSK0FhErg-13" value="" style="edgeStyle=orthogonalEdgeStyle;rounded=0;orthogonalLoop=1;jettySize=auto;html=1;entryX=-0.025;entryY=0.383;entryDx=0;entryDy=0;entryPerimeter=0;" edge="1" parent="1" source="PJ4laJO8iNkLSK0FhErg-10" target="PJ4laJO8iNkLSK0FhErg-1">
          <mxGeometry relative="1" as="geometry">
            <mxPoint x="70" y="940" as="targetPoint" />
            <Array as="points">
              <mxPoint x="90" y="1310" />
              <mxPoint x="90" y="953" />
            </Array>
          </mxGeometry>
        </mxCell>
        <mxCell id="PJ4laJO8iNkLSK0FhErg-14" value="开始新的宏任务" style="edgeLabel;html=1;align=center;verticalAlign=middle;resizable=0;points=[];" vertex="1" connectable="0" parent="PJ4laJO8iNkLSK0FhErg-13">
          <mxGeometry x="0.1502" y="2" relative="1" as="geometry">
            <mxPoint as="offset" />
          </mxGeometry>
        </mxCell>
        <mxCell id="PJ4laJO8iNkLSK0FhErg-10" value="执行所有微任务" style="whiteSpace=wrap;html=1;rounded=1;" vertex="1" parent="1">
          <mxGeometry x="206" y="1280" width="120" height="60" as="geometry" />
        </mxCell>
      </root>
    </mxGraphModel>
  </diagram>
</mxfile>
